Coordinates
version=1
nRows=22
nColumns=24
inDegrees=yes

Units are S.I. units (second, meters, Newtons, ...)
Angles are in degrees.

endheader
time	pelvis_tilt	pelvis_list	pelvis_rotation	pelvis_tx	pelvis_ty	pelvis_tz	hip_flexion_r	hip_adduction_r	hip_rotation_r	knee_angle_r	ankle_angle_r	subtalar_angle_r	mtp_angle_r	hip_flexion_l	hip_adduction_l	hip_rotation_l	knee_angle_l	ankle_angle_l	subtalar_angle_l	mtp_angle_l	lumbar_extension	lumbar_bending	lumbar_rotation
      4.53000000	     -8.92513288	     -8.43959155	      5.04515128	     -1.58316205	     -0.01854467	      0.44776656	     19.95186987	      8.77358892	     -3.86085260	    -14.42504035	     -4.92079014	     -1.85336645	      4.58869039	     16.51795486	     -8.36311595	      4.83774883	    -58.12959399	    -25.63352844	     -2.39488312	     26.40663214	      8.80550270	      6.19292044	     -3.60712868
      4.53500000	     -8.79588894	     -8.42862188	      5.07189547	     -1.57766526	     -0.01798356	      0.44828920	     19.34169905	      8.90547542	     -3.69122978	    -14.26144145	     -4.74745973	     -2.16705046	      4.48047041	     17.30468842	     -8.30380273	      4.82616353	    -58.99005800	    -25.17520082	     -4.23438621	     25.63211344	      8.59305290	      6.14859596	     -3.31860843
      4.54000000	     -8.68717361	     -8.31612147	      5.08346407	     -1.57217354	     -0.01735160	      0.44883660	     18.72913615	      8.93800352	     -3.41472461	    -14.08151389	     -4.57861778	     -2.50632753	      4.37593958	     18.06536024	     -8.13197801	      4.78738530	    -59.70448165	    -24.68777199	     -5.89637680	     24.87779530	      8.39859740	      5.98631790	     -3.06088328
      4.54500000	     -8.58938141	     -8.16030697	      5.07147865	     -1.56670311	     -0.01669086	      0.44938649	     18.11934508	      8.92934647	     -3.11010966	    -13.89324122	     -4.41961606	     -2.85691609	      4.27912401	     18.80805246	     -7.91634584	      4.72870039	    -60.30097157	    -24.14447163	     -7.31240522	     24.23336481	      8.21058438	      5.78834231	     -2.77877105
      4.55000000	     -8.50372737	     -7.95425264	      5.03488295	     -1.56129696	     -0.01598661	      0.44994207	     17.52447821	      8.86884175	     -2.78233094	    -13.71256115	     -4.29696149	     -3.20715875	      4.19295408	     19.53081584	     -7.64553119	      4.65632475	    -60.77469547	    -23.52240094	     -8.47025492	     23.70284037	      8.02118669	      5.54202170	     -2.46499279
      4.55500000	     -8.43691701	     -7.70859089	      4.99940051	     -1.55586550	     -0.01528021	      0.45052384	     16.93817061	      8.76355708	     -2.46763632	    -13.52117919	     -4.13497004	     -3.54832462	      4.11655113	     20.24511219	     -7.33793099	      4.57887425	    -61.12549334	    -22.83608849	     -9.35065618	     23.35988703	      7.85796169	      5.24553681	     -2.15320231
      4.56000000	     -8.37878036	     -7.44158418	      4.92116695	     -1.55050038	     -0.01453575	      0.45108662	     16.36723997	      8.63574372	     -2.11391666	    -13.33923240	     -4.03806063	     -3.86438457	      4.04224664	     20.93512376	     -7.01415610	      4.45847185	    -61.35989507	    -22.08110157	    -10.04216382	     23.08139227	      7.68988431	      4.94434547	     -1.79436586
      4.56500000	     -8.36052163	     -7.14892924	      4.92920824	     -1.54512568	     -0.01382569	      0.45151286	     15.82791533	      8.43638480	     -1.87225197	    -13.13953301	     -3.83362234	     -4.04093766	      4.00818699	     21.66010366	     -6.61646624	      4.44628476	    -61.47466817	    -21.31524344	    -10.50766148	     23.08911836	      7.58148263	      4.60384593	     -1.58496429
      4.57000000	     -8.35515586	     -6.78504254	      4.88290148	     -1.53979122	     -0.01307598	      0.45200478	     15.31419068	      8.17372923	     -1.59122303	    -12.97324587	     -3.66264954	     -4.25178530	      3.95168063	     22.34880526	     -6.16846087	      4.34146089	    -61.45999946	    -20.54268847	    -10.83010702	     23.09636629	      7.47138504	      4.19404731	     -1.28668266
      4.57500000	     -8.32909129	     -6.38706835	      4.64854851	     -1.53449996	     -0.01231836	      0.45279255	     14.79161156	      7.93715437	     -1.09138473	    -12.84139097	     -3.52471996	     -4.54973323	      3.88051369	     22.94896620	     -5.79293777	      4.01892795	    -61.33970039	    -19.59987662	    -10.84311116	     23.09783534	      7.30536156	      3.77174942	     -0.76856822
      4.58000000	     -8.34255679	     -5.98499416	      4.55594035	     -1.52919581	     -0.01158933	      0.45333690	     14.29807828	      7.63327917	     -0.76160267	    -12.67299559	     -3.36244998	     -4.75250993	      3.84930879	     23.59615844	     -5.33635711	      3.85395078	    -61.11487813	    -18.71432450	    -10.76924728	     23.18634989	      7.20680287	      3.32745044	     -0.44348457
      4.58500000	     -8.37132198	     -5.57209100	      4.43091397	     -1.52389036	     -0.01088516	      0.45388642	     13.82010465	      7.31362621	     -0.41838890	    -12.50194663	     -3.17771724	     -4.88489684	      3.83859390	     24.22698093	     -4.88699312	      3.65161014	    -60.78594234	    -17.82899637	    -10.56845083	     23.33667382	      7.12690192	      2.88135485	     -0.08806386
      4.59000000	     -8.41005592	     -5.14764965	      4.30103408	     -1.51864295	     -0.01022953	      0.45441978	     13.37332323	      6.97362103	     -0.10279960	    -12.36042343	     -2.96916621	     -4.98901318	      3.83748245	     24.84841569	     -4.42825076	      3.44403020	    -60.36508412	    -16.97341432	    -10.32023239	     23.50730787	      7.04838745	      2.42907719	      0.25354346
      4.59500000	     -8.45708430	     -4.72923648	      4.16025087	     -1.51338967	     -0.00961729	      0.45492598	     12.93372701	      6.63277434	      0.20248908	    -12.20821836	     -2.75623793	     -5.06060923	      3.83892086	     25.45506127	     -3.98515167	      3.22421393	    -59.85563005	    -16.15663963	    -10.03229643	     23.66946532	      6.98455321	      1.99049908	      0.59747333
      4.60000000	     -8.50384567	     -4.33118547	      4.00427040	     -1.50810417	     -0.00905053	      0.45544630	     12.48761156	      6.31222748	      0.51624963	    -12.03860131	     -2.54635479	     -5.10619814	      3.83969074	     26.03933905	     -3.58222157	      2.98987069	    -59.26698756	    -15.37930061	     -9.71026148	     23.79612890	      6.93023920	      1.57285829	      0.96314303
      4.60500000	     -8.57686418	     -3.95335588	      3.94476103	     -1.50286011	     -0.00859444	      0.45581336	     12.07604019	      5.98319842	      0.72416690	    -11.86815957	     -2.32058800	     -5.19220986	      3.83564328	     26.66175305	     -3.14671203	      2.85308466	    -58.61532782	    -14.79039561	     -9.57379423	     23.85135925	      6.90582213	      1.16355448	      1.18538680
      4.61000000	     -8.59107450	     -3.59039447	      3.67118111	     -1.49760898	     -0.00813341	      0.45636401	     11.62844246	      5.71369348	      1.10169768	    -11.74117154	     -2.11353956	     -5.19975927	      3.85281783	     27.15571211	     -2.85407781	      2.50834987	    -57.88029029	    -14.04115729	     -9.26321406	     23.91705208	      6.81158853	      0.82460573	      1.65852479
      4.61500000	     -8.65153058	     -3.27573133	      3.58110513	     -1.49232612	     -0.00782654	      0.45670618	     11.20201382	      5.45237184	      1.31176880	    -11.55298254	     -1.89459882	     -5.29778507	      3.83475688	     27.73032935	     -2.51388240	      2.36353996	    -57.10817567	    -13.54882965	     -9.18024439	     23.87552630	      6.78508456	      0.49464346	      1.89500760
      4.62000000	     -8.63893111	     -2.96453108	      3.30123411	     -1.48704241	     -0.00748936	      0.45719707	     10.72385749	      5.23204175	      1.70390710	    -11.41108706	     -1.71123008	     -5.36119368	      3.81431328	     28.16586206	     -2.29954561	      2.00562248	    -56.25369984	    -12.96985379	     -9.05704555	     23.74799465	      6.67589252	      0.22040429	      2.35231422
      4.62500000	     -8.68700536	     -2.70848359	      3.20427108	     -1.48171172	     -0.00732877	      0.45743915	     10.27995378	      5.02392923	      1.92473366	    -11.20977410	     -1.49920005	     -5.47561682	      3.78005026	     28.69634864	     -2.04021597	      1.86072930	    -55.37205765	    -12.58816939	     -9.06565266	     23.60436327	      6.65067620	     -0.02612421	      2.58877739
      4.63000000	     -8.63159765	     -2.45301412	      2.89382816	     -1.47637090	     -0.00710012	      0.45792924	      9.74426244	      4.86553593	      2.35428218	    -11.03895459	     -1.33645554	     -5.59830357	      3.70767731	     29.05293799	     -1.92471475	      1.47083965	    -54.41662475	    -12.17185518	     -9.12379548	     23.25939201	      6.50856826	     -0.23732885	      3.05920945
      4.63500000	     -8.60829617	     -2.22826666	      2.69030321	     -1.47101439	     -0.00699356	      0.45824958	      9.23137199	      4.70966094	      2.68834148	    -10.84706342	     -1.16076250	     -5.75702329	      3.62790092	     29.44824069	     -1.78381052	      1.20576591	    -53.41922703	    -11.82830026	     -9.22669331	     22.87808988	      6.40708570	     -0.42775781	      3.39176007
